<?xml version="1.0" encoding="utf-8"?>
<!-- Generator: Adobe Illustrator 16.0.4, SVG Export Plug-In . SVG Version: 6.00 Build 0)  -->
<!DOCTYPE svg PUBLIC "-//W3C//DTD SVG 1.1//EN" "http://www.w3.org/Graphics/SVG/1.1/DTD/svg11.dtd">
<svg version="1.1" id="Layer_1" xmlns="http://www.w3.org/2000/svg" xmlns:xlink="http://www.w3.org/1999/xlink" x="0px" y="0px"
	 width="150px" height="500px" viewBox="0 0 150 500" enable-background="new 0 0 150 500" xml:space="preserve">
<g>
	<polygon fill="#FF00FF" points="129.091,50.372 129.091,40.997 89.75,25.076 129.091,9.376 129.091,0 72.245,23.185 15.397,0 
		15.397,9.376 54.739,25.076 15.397,40.997 15.397,50.372 72.245,26.64 	"/>
	<polygon fill="#FF00FF" points="129.091,88.757 129.091,57.431 80.697,57.431 72.322,57.431 23.928,57.431 23.928,88.757 
		31.979,88.757 31.979,65.998 45.62,65.998 45.62,88.095 53.673,88.095 53.673,65.998 72.322,65.998 72.322,88.757 72.645,88.757 
		80.374,88.757 80.697,88.757 80.697,65.998 99.346,65.998 99.346,88.095 107.398,88.095 107.398,65.998 121.039,65.998 
		121.039,88.757 	"/>
	<path fill="#FF00FF" d="M19.74,100.008v10.038c0,7.5,1.409,12.917,4.229,16.251c3.138,3.677,7.28,5.515,12.428,5.515
		c4.02,0,7.476-1.153,10.368-3.457c2.893-2.304,4.743-5.344,5.552-9.118l24.193,17.575l24.192-17.575
		c0.81,3.774,2.66,6.814,5.552,9.118c2.893,2.303,6.349,3.457,10.369,3.457c5.147,0,9.29-1.838,12.427-5.515
		c2.819-3.334,4.229-8.751,4.229-16.251v-10.038H76.51H19.74z M45.809,111.295c0,8.112-3.101,12.17-9.302,12.17
		c-5.81,0-8.715-3.948-8.715-11.839v-3.052h18.017V111.295z M107.21,108.575h18.017v3.052c0,7.892-2.905,11.839-8.714,11.839
		c-6.202,0-9.303-4.058-9.303-12.17V108.575z M99.746,108.575v1.544L76.51,126.333l-23.237-16.214v-1.544H76.51H99.746z"/>
	<path fill="#FF00FF" d="M17.016,186.742v8.567h51.85h8.376h51.85v-8.567H89.64l43.312-41.4H13.155l43.312,41.4H17.016z
		 M34.039,153.909h78.028l-39.014,37.387L34.039,153.909z"/>
	<path fill="#FF00FF" d="M76.51,202.846l-60.336,28.09l60.336,27.097l60.335-27.097L76.51,202.846z M54.669,239.209l-19.303-8.42
		l19.303-8.824V239.209z M90.297,242.702l-13.787,5.957l-13.788-5.957v-24.303l13.788-6.324l13.787,6.324V242.702z M98.35,221.965
		l19.303,8.824l-19.303,8.42V221.965z"/>
	<path fill="#FF00FF" d="M122.929,266.822c-5.662-4.781-12.109-7.17-19.34-7.17c-8.064,0-14.952,2.855-20.663,8.566
		c-3.683,3.73-6.159,7.965-7.446,12.701c-1.288-4.736-3.765-8.971-7.446-12.701c-5.711-5.711-12.599-8.566-20.663-8.566
		c-7.23,0-13.678,2.389-19.34,7.17c-6.937,5.883-10.405,13.492-10.405,22.832c0,5.098,1.385,10.025,4.155,14.781h10.147
		c-4.143-4.953-6.214-10.076-6.214-15.369c0-5.834,2.096-10.748,6.287-14.744c4.167-4.02,9.266-6.029,15.296-6.029
		c5.956,0,10.98,2.01,15.074,6.029s6.141,8.947,6.141,14.781c0,3.014-0.49,5.576-1.471,7.684c-0.49,1.176-1.152,2.396-1.985,3.658
		c-0.834,1.262-1.839,2.592-3.016,3.99h10.332c1.38-2.443,2.415-4.947,3.107-7.512c0.692,2.564,1.728,5.068,3.107,7.512h10.332
		c-1.177-1.398-2.182-2.729-3.016-3.99c-0.833-1.262-1.495-2.482-1.985-3.658c-0.98-2.107-1.471-4.67-1.471-7.684
		c0-5.834,2.047-10.762,6.141-14.781c4.093-4.02,9.118-6.029,15.074-6.029c6.03,0,11.128,2.01,15.295,6.029
		c4.191,3.996,6.288,8.91,6.288,14.744c0,5.293-2.071,10.416-6.214,15.369h10.147c2.77-4.756,4.155-9.684,4.155-14.781
		C133.334,280.314,129.865,272.705,122.929,266.822z"/>
	<path fill="#FF00FF" d="M85.244,326.201c2.255-1.594,5.821-2.391,10.699-2.391h34.193v-8.566H93.59
		c-5.98,0-10.907,1.863-14.78,5.588c-1.32,1.277-2.414,2.654-3.33,4.111c-0.916-1.457-2.01-2.834-3.33-4.111
		c-3.873-3.725-8.8-5.588-14.78-5.588H20.822v8.566h34.193c4.878,0,8.444,0.797,10.699,2.391c3.26,2.377,4.891,5.723,4.891,10.037
		c0,4.338-1.631,7.697-4.891,10.074c-2.182,1.594-5.748,2.391-10.699,2.391H20.822v8.566h36.547c5.98,0,10.907-1.863,14.78-5.59
		c1.32-1.281,2.414-2.666,3.33-4.129c0.916,1.463,2.01,2.848,3.33,4.129c3.873,3.727,8.8,5.59,14.78,5.59h36.547v-8.566H95.943
		c-4.951,0-8.518-0.797-10.699-2.391c-3.261-2.377-4.891-5.736-4.891-10.074C80.354,331.924,81.983,328.578,85.244,326.201z"/>
	<polygon fill="#FF00FF" points="72.645,396.133 80.374,396.133 80.697,396.133 80.697,379.439 129.091,379.439 129.091,370.873 
		23.928,370.873 23.928,379.439 72.322,379.439 72.322,396.133 	"/>
	<path fill="#FF00FF" d="M16.174,429.002L76.51,456.1l60.335-27.098l-60.335-28.09L16.174,429.002z M54.669,437.275l-19.303-8.42
		l19.303-8.824V437.275z M98.35,420.031l19.303,8.824l-19.303,8.42V420.031z M90.297,416.465v24.303l-13.787,5.957l-13.788-5.957
		v-24.303l13.788-6.324L90.297,416.465z"/>
	<path fill="#FF00FF" d="M19.74,463.195v10.039c0,7.5,1.409,12.916,4.229,16.25c3.138,3.678,7.28,5.516,12.428,5.516
		c4.02,0,7.476-1.152,10.368-3.457c2.893-2.303,4.743-5.342,5.552-9.117L76.51,500l24.192-17.574c0.81,3.775,2.66,6.814,5.552,9.117
		c2.893,2.305,6.349,3.457,10.369,3.457c5.147,0,9.29-1.838,12.427-5.516c2.819-3.334,4.229-8.75,4.229-16.25v-10.039H19.74z
		 M45.809,474.484c0,8.113-3.101,12.17-9.302,12.17c-5.81,0-8.715-3.947-8.715-11.84v-3.051h18.017V474.484z M107.21,471.764h18.017
		v3.051c0,7.893-2.905,11.84-8.714,11.84c-6.202,0-9.303-4.057-9.303-12.17V471.764z M99.746,471.764v1.543L76.51,489.521
		l-23.237-16.215v-1.543H99.746z"/>
</g>
<g>
	<g>
		<path fill="#FF00FF" d="M89.265,448.166c1.935,0,1.935-3,0-3S87.33,448.166,89.265,448.166L89.265,448.166z"/>
	</g>
</g>
</svg>
