<?xml version="1.0" encoding="utf-8"?>
<!-- Generator: Adobe Illustrator 16.0.4, SVG Export Plug-In . SVG Version: 6.00 Build 0)  -->
<!DOCTYPE svg PUBLIC "-//W3C//DTD SVG 1.1//EN" "http://www.w3.org/Graphics/SVG/1.1/DTD/svg11.dtd">
<svg version="1.1" id="Layer_1" xmlns="http://www.w3.org/2000/svg" xmlns:xlink="http://www.w3.org/1999/xlink" x="0px" y="0px"
	 width="500px" height="150px" viewBox="0 0 500 150" enable-background="new 0 0 500 150" xml:space="preserve">
<g>
	<polygon fill="#FF00FF" points="50.372,20.909 40.997,20.91 25.076,60.25 9.376,20.91 0,20.91 23.185,77.755 0,134.604 
		9.376,134.604 25.076,95.262 40.997,134.604 50.372,134.604 26.64,77.755 	"/>
	<polygon fill="#FF00FF" points="88.757,20.909 57.431,20.91 57.431,69.303 57.431,77.679 57.431,126.072 88.757,126.072 
		88.757,118.021 65.998,118.021 65.998,104.38 88.095,104.38 88.095,96.327 65.998,96.327 65.998,77.679 88.757,77.679 
		88.757,77.355 88.757,69.626 88.757,69.303 65.998,69.303 65.998,50.655 88.095,50.654 88.095,42.602 65.998,42.602 65.998,28.961 
		88.757,28.961 	"/>
	<path fill="#FF00FF" d="M100.008,130.26h10.038c7.5,0,12.917-1.408,16.251-4.229c3.677-3.138,5.515-7.28,5.515-12.428
		c0-4.021-1.153-7.477-3.457-10.368c-2.304-2.894-5.344-4.743-9.118-5.552l17.575-24.193l-17.575-24.192
		c3.774-0.81,6.814-2.659,9.118-5.552c2.303-2.892,3.457-6.35,3.457-10.369c0-5.146-1.838-9.29-5.515-12.426
		c-3.334-2.819-8.751-4.23-16.251-4.229l-10.038,0v56.77V130.26z M111.295,104.191c8.112,0,12.17,3.101,12.17,9.302
		c0,5.811-3.948,8.715-11.839,8.715h-3.052l0-18.017H111.295z M108.575,42.79V24.774h3.052c7.892,0,11.839,2.904,11.839,8.712
		c0,6.203-4.058,9.304-12.17,9.304H108.575z M108.575,50.254h1.544l16.214,23.236l-16.214,23.236l-1.544,0.001V73.49V50.254z"/>
	<path fill="#FF00FF" d="M186.742,132.984h8.567l-0.001-51.851v-8.376V20.909h-8.566v39.451l-41.401-43.312l0,119.798l41.4-43.312
		V132.984z M153.909,115.961V37.934l37.387,39.014L153.909,115.961z"/>
	<path fill="#FF00FF" d="M202.846,73.49l28.09,60.336l27.097-60.336l-27.097-60.335L202.846,73.49z M239.209,95.331l-8.42,19.303
		l-8.824-19.303H239.209z M242.702,59.704l5.957,13.787l-5.957,13.787h-24.303l-6.324-13.787l6.324-13.787H242.702z M221.965,51.65
		l8.824-19.302l8.42,19.303L221.965,51.65z"/>
	<path fill="#FF00FF" d="M266.822,27.07c-4.781,5.662-7.17,12.109-7.17,19.341c0,8.064,2.854,14.952,8.565,20.663
		c3.73,3.683,7.966,6.158,12.7,7.445c-4.734,1.288-8.971,3.766-12.7,7.446c-5.711,5.711-8.565,12.6-8.565,20.663
		c0,7.23,2.389,13.678,7.17,19.34c5.883,6.937,13.492,10.405,22.832,10.405c5.098,0,10.025-1.386,14.781-4.155v-10.146
		c-4.953,4.143-10.076,6.215-15.369,6.214c-5.834,0-10.748-2.096-14.744-6.287c-4.02-4.167-6.029-9.266-6.029-15.296
		c0-5.956,2.01-10.979,6.029-15.074c4.019-4.094,8.947-6.141,14.781-6.141c3.014,0,5.576,0.489,7.684,1.471
		c1.176,0.49,2.396,1.152,3.658,1.985c1.262,0.834,2.592,1.839,3.99,3.016V77.628c-2.443-1.38-4.947-2.414-7.513-3.106
		c2.563-0.692,5.068-1.729,7.513-3.107V61.083c-1.397,1.177-2.729,2.181-3.991,3.016c-1.261,0.834-2.482,1.495-3.657,1.985
		c-2.107,0.979-4.67,1.472-7.684,1.472c-5.834,0-10.763-2.048-14.782-6.142c-4.02-4.093-6.028-9.118-6.028-15.074
		c0-6.031,2.01-11.128,6.029-15.295c3.996-4.19,8.91-6.288,14.744-6.288c5.293,0,10.416,2.071,15.369,6.215V20.823
		c-4.756-2.77-9.685-4.154-14.781-4.155C280.314,16.667,272.705,20.135,266.822,27.07z"/>
	<path fill="#FF00FF" d="M326.201,64.756c-1.594-2.255-2.391-5.82-2.391-10.699V19.864h-8.566v36.547
		c0,5.98,1.864,10.905,5.588,14.778c1.277,1.32,2.654,2.414,4.11,3.33c-1.456,0.917-2.833,2.011-4.11,3.331
		c-3.725,3.872-5.589,8.8-5.589,14.779l0.001,36.548l8.566,0.001V94.984c0-4.878,0.797-8.443,2.391-10.698
		c2.377-3.261,5.723-4.891,10.037-4.891c4.338,0,7.697,1.631,10.074,4.891c1.594,2.182,2.391,5.748,2.39,10.698l0.001,34.193
		l8.566,0.001V92.632c0-5.98-1.863-10.908-5.589-14.78c-1.282-1.32-2.667-2.414-4.131-3.33c1.464-0.916,2.849-2.01,4.13-3.33
		c3.726-3.873,5.59-8.801,5.59-14.78V19.863l-8.566,0.001l-0.001,34.193c0.001,4.951-0.797,8.519-2.391,10.699
		c-2.376,3.262-5.735,4.891-10.073,4.891C331.924,69.646,328.578,68.018,326.201,64.756z"/>
	<polygon fill="#FF00FF" points="396.133,77.355 396.133,69.625 396.133,69.303 379.439,69.303 379.439,20.909 370.873,20.91 
		370.874,126.072 379.439,126.072 379.439,77.679 396.133,77.679 	"/>
	<path fill="#FF00FF" d="M429.002,133.826L456.1,73.49l-27.099-60.336L400.912,73.49L429.002,133.826z M437.275,95.331
		l-8.421,19.303l-8.823-19.303H437.275z M420.031,51.65l8.824-19.303l8.42,19.303H420.031z M416.466,59.704h24.303l5.956,13.787
		l-5.957,13.788h-24.303l-6.324-13.788L416.466,59.704z"/>
	<path fill="#FF00FF" d="M463.195,130.26h10.04c7.499,0,12.915-1.408,16.249-4.229c3.678-3.138,5.516-7.28,5.516-12.428
		c0-4.021-1.152-7.477-3.457-10.369c-2.303-2.893-5.342-4.742-9.117-5.551L500,73.49l-17.574-24.192
		c3.775-0.809,6.814-2.659,9.117-5.551c2.305-2.893,3.457-6.35,3.457-10.369c0-5.147-1.838-9.291-5.516-12.428
		c-3.334-2.818-8.75-4.229-16.25-4.229h-10.039V130.26z M474.484,104.191c8.113,0,12.17,3.101,12.17,9.302
		c0,5.811-3.947,8.715-11.84,8.715h-3.052v-18.017H474.484z M471.764,42.79V24.773h3.052c7.893,0,11.84,2.904,11.84,8.713
		c-0.001,6.203-4.058,9.303-12.171,9.303H471.764z M471.764,50.254h1.542l16.216,23.236l-16.216,23.236l-1.543,0.001L471.764,50.254
		L471.764,50.254z"/>
</g>
<g>
	<g>
		<path fill="#FF00FF" d="M448.166,60.734c0-1.934-3-1.935-3,0C445.166,62.67,448.166,62.67,448.166,60.734L448.166,60.734z"/>
	</g>
</g>
<g>
	<polygon fill="#FF00FF" points="50.372,20.909 40.997,20.91 25.076,60.25 9.376,20.91 0,20.91 23.185,77.755 0,134.604 
		9.376,134.604 25.076,95.262 40.997,134.604 50.372,134.604 26.64,77.755 	"/>
	<polygon fill="#FF00FF" points="88.757,20.909 57.431,20.91 57.431,69.303 57.431,77.679 57.431,126.072 88.757,126.072 
		88.757,118.021 65.998,118.021 65.998,104.38 88.095,104.38 88.095,96.327 65.998,96.327 65.998,77.679 88.757,77.679 
		88.757,77.355 88.757,69.626 88.757,69.303 65.998,69.303 65.998,50.655 88.095,50.654 88.095,42.602 65.998,42.602 65.998,28.961 
		88.757,28.961 	"/>
	<path fill="#FF00FF" d="M100.008,130.26h10.038c7.5,0,12.917-1.408,16.251-4.229c3.677-3.138,5.515-7.28,5.515-12.428
		c0-4.021-1.153-7.477-3.457-10.368c-2.304-2.894-5.344-4.743-9.118-5.552l17.575-24.193l-17.575-24.192
		c3.774-0.81,6.814-2.659,9.118-5.552c2.303-2.892,3.457-6.35,3.457-10.369c0-5.146-1.838-9.29-5.515-12.426
		c-3.334-2.819-8.751-4.23-16.251-4.229l-10.038,0v56.77V130.26z M111.295,104.191c8.112,0,12.17,3.101,12.17,9.302
		c0,5.811-3.948,8.715-11.839,8.715h-3.052l0-18.017H111.295z M108.575,42.79V24.774h3.052c7.892,0,11.839,2.904,11.839,8.712
		c0,6.203-4.058,9.304-12.17,9.304H108.575z M108.575,50.254h1.544l16.214,23.236l-16.214,23.236l-1.544,0.001V73.49V50.254z"/>
	<path fill="#FF00FF" d="M186.742,132.984h8.567l-0.001-51.851v-8.376V20.909h-8.566v39.451l-41.401-43.312l0,119.798l41.4-43.312
		V132.984z M153.909,115.961V37.934l37.387,39.014L153.909,115.961z"/>
	<path fill="#FF00FF" d="M202.846,73.49l28.09,60.336l27.097-60.336l-27.097-60.335L202.846,73.49z M239.209,95.331l-8.42,19.303
		l-8.824-19.303H239.209z M242.702,59.704l5.957,13.787l-5.957,13.787h-24.303l-6.324-13.787l6.324-13.787H242.702z M221.965,51.65
		l8.824-19.302l8.42,19.303L221.965,51.65z"/>
	<path fill="#FF00FF" d="M266.822,27.07c-4.781,5.662-7.17,12.109-7.17,19.341c0,8.064,2.854,14.952,8.565,20.663
		c3.73,3.683,7.966,6.158,12.7,7.445c-4.734,1.288-8.971,3.766-12.7,7.446c-5.711,5.711-8.565,12.6-8.565,20.663
		c0,7.23,2.389,13.678,7.17,19.34c5.883,6.937,13.492,10.405,22.832,10.405c5.098,0,10.025-1.386,14.781-4.155v-10.146
		c-4.953,4.143-10.076,6.215-15.369,6.214c-5.834,0-10.748-2.096-14.744-6.287c-4.02-4.167-6.029-9.266-6.029-15.296
		c0-5.956,2.01-10.979,6.029-15.074c4.019-4.094,8.947-6.141,14.781-6.141c3.014,0,5.576,0.489,7.684,1.471
		c1.176,0.49,2.396,1.152,3.658,1.985c1.262,0.834,2.592,1.839,3.99,3.016V77.628c-2.443-1.38-4.947-2.414-7.513-3.106
		c2.563-0.692,5.068-1.729,7.513-3.107V61.083c-1.397,1.177-2.729,2.181-3.991,3.016c-1.261,0.834-2.482,1.495-3.657,1.985
		c-2.107,0.979-4.67,1.472-7.684,1.472c-5.834,0-10.763-2.048-14.782-6.142c-4.02-4.093-6.028-9.118-6.028-15.074
		c0-6.031,2.01-11.128,6.029-15.295c3.996-4.19,8.91-6.288,14.744-6.288c5.293,0,10.416,2.071,15.369,6.215V20.823
		c-4.756-2.77-9.685-4.154-14.781-4.155C280.314,16.667,272.705,20.135,266.822,27.07z"/>
	<path fill="#FF00FF" d="M326.201,64.756c-1.594-2.255-2.391-5.82-2.391-10.699V19.864h-8.566v36.547
		c0,5.98,1.864,10.905,5.588,14.778c1.277,1.32,2.654,2.414,4.11,3.33c-1.456,0.917-2.833,2.011-4.11,3.331
		c-3.725,3.872-5.589,8.8-5.589,14.779l0.001,36.548l8.566,0.001V94.984c0-4.878,0.797-8.443,2.391-10.698
		c2.377-3.261,5.723-4.891,10.037-4.891c4.338,0,7.697,1.631,10.074,4.891c1.594,2.182,2.391,5.748,2.39,10.698l0.001,34.193
		l8.566,0.001V92.632c0-5.98-1.863-10.908-5.589-14.78c-1.282-1.32-2.667-2.414-4.131-3.33c1.464-0.916,2.849-2.01,4.13-3.33
		c3.726-3.873,5.59-8.801,5.59-14.78V19.863l-8.566,0.001l-0.001,34.193c0.001,4.951-0.797,8.519-2.391,10.699
		c-2.376,3.262-5.735,4.891-10.073,4.891C331.924,69.646,328.578,68.018,326.201,64.756z"/>
	<polygon fill="#FF00FF" points="396.133,77.355 396.133,69.625 396.133,69.303 379.439,69.303 379.439,20.909 370.873,20.91 
		370.874,126.072 379.439,126.072 379.439,77.679 396.133,77.679 	"/>
	<path fill="#FF00FF" d="M429.002,133.826L456.1,73.49l-27.099-60.336L400.912,73.49L429.002,133.826z M437.275,95.331
		l-8.421,19.303l-8.823-19.303H437.275z M420.031,51.65l8.824-19.303l8.42,19.303H420.031z M416.466,59.704h24.303l5.956,13.787
		l-5.957,13.788h-24.303l-6.324-13.788L416.466,59.704z"/>
	<path fill="#FF00FF" d="M463.195,130.26h10.04c7.499,0,12.915-1.408,16.249-4.229c3.678-3.138,5.516-7.28,5.516-12.428
		c0-4.021-1.152-7.477-3.457-10.369c-2.303-2.893-5.342-4.742-9.117-5.551L500,73.49l-17.574-24.192
		c3.775-0.809,6.814-2.659,9.117-5.551c2.305-2.893,3.457-6.35,3.457-10.369c0-5.147-1.838-9.291-5.516-12.428
		c-3.334-2.818-8.75-4.229-16.25-4.229h-10.039V130.26z M474.484,104.191c8.113,0,12.17,3.101,12.17,9.302
		c0,5.811-3.947,8.715-11.84,8.715h-3.052v-18.017H474.484z M471.764,42.79V24.773h3.052c7.893,0,11.84,2.904,11.84,8.713
		c-0.001,6.203-4.058,9.303-12.171,9.303H471.764z M471.764,50.254h1.542l16.216,23.236l-16.216,23.236l-1.543,0.001L471.764,50.254
		L471.764,50.254z"/>
</g>
<g>
	<g>
		<path fill="#FF00FF" d="M448.166,60.734c0-1.934-3-1.935-3,0C445.166,62.67,448.166,62.67,448.166,60.734L448.166,60.734z"/>
	</g>
</g>
</svg>
